<svg width="62" height="73" viewBox="0 0 62 73" fill="none" xmlns="http://www.w3.org/2000/svg">
<path fill-rule="evenodd" clip-rule="evenodd" d="M47.4557 57.96C55.6138 52.4159 61 42.868 61 32.0194C61 14.8879 47.5685 1 31 1C14.4315 1 1 14.8879 1 32.0194C1 49.151 14.4315 63.0388 31 63.0388C31.2305 63.0388 31.4603 63.0361 31.6895 63.0308L31.6667 63.0388V72L47.4557 57.96Z" fill="white"/>
<path d="M47.4557 57.96L46.8936 57.133C46.8578 57.1573 46.8235 57.184 46.7912 57.2128L47.4557 57.96ZM31.6895 63.0308L32.0211 63.9742C32.4851 63.8112 32.7616 63.3349 32.6732 62.8511C32.5849 62.3673 32.1579 62.0196 31.6662 62.0311L31.6895 63.0308ZM31.6667 63.0388L31.3351 62.0954C30.9346 62.2362 30.6667 62.6144 30.6667 63.0388H31.6667ZM31.6667 72H30.6667C30.6667 72.3938 30.8978 72.751 31.2571 72.9123C31.6164 73.0736 32.0369 73.009 32.3312 72.7473L31.6667 72ZM60 32.0194C60 42.5322 54.7817 51.7724 46.8936 57.133L48.0177 58.7871C56.446 53.0595 62 43.2039 62 32.0194H60ZM31 2C46.985 2 60 15.4084 60 32.0194H62C62 14.3673 48.1521 0 31 0V2ZM2 32.0194C2 15.4084 15.015 2 31 2V0C13.8479 0 0 14.3673 0 32.0194H2ZM31 62.0388C15.015 62.0388 2 48.6304 2 32.0194H0C0 49.6715 13.8479 64.0388 31 64.0388V62.0388ZM31.6662 62.0311C31.4448 62.0362 31.2227 62.0388 31 62.0388V64.0388C31.2382 64.0388 31.4758 64.0361 31.7128 64.0305L31.6662 62.0311ZM31.9983 63.9823L32.0211 63.9742L31.3579 62.0874L31.3351 62.0954L31.9983 63.9823ZM32.6667 72V63.0388H30.6667V72H32.6667ZM46.7912 57.2128L31.0022 71.2527L32.3312 72.7473L48.1202 58.7073L46.7912 57.2128Z" fill="black"/>
<path d="M47.6736 24.8128C46.445 21.7428 44.4665 19.0621 41.9351 17.038C39.4038 15.0139 36.4081 13.717 33.2464 13.2766C30.0848 12.8363 26.8678 13.2678 23.9159 14.5281C20.964 15.7885 18.3803 17.8337 16.4224 20.46C14.4644 23.0862 13.2006 26.2018 12.7569 29.4962C12.3131 32.7906 12.7049 36.1487 13.8932 39.236C15.0815 42.3233 17.0248 45.0318 19.5294 47.0917C22.0341 49.1516 25.0126 50.491 28.1681 50.9763C27.7548 49.4228 27.3343 47.7058 26.9637 45.8848C28.0418 46.6142 29.1765 47.2482 30.356 47.7802V47.7802C30.356 47.7802 30.4415 49.3856 30.5555 51.1769C31.8299 51.1999 33.1031 51.0828 34.354 50.8276C34.3217 50.6408 34.3217 50.4495 34.354 50.2627C34.5607 48.8728 35.1308 46.3679 35.2448 44.755C36.0667 43.9532 36.764 43.0229 37.3115 41.9974V41.9974L37.2688 42.3245C36.8768 45.4909 36.0572 48.8728 35.5584 49.8093C35.3969 50.1193 35.1981 50.4066 34.9669 50.6641C37.5466 50.0329 39.9638 48.8241 42.0509 47.1216C44.138 45.419 45.8452 43.2634 47.0539 40.8042C48.2627 38.3449 48.9442 35.6409 49.0512 32.8796C49.1582 30.1183 48.6881 27.3658 47.6736 24.8128V24.8128ZM46.6259 27.6299C46.3124 27.9495 45.6639 28.165 45.557 27.1988C45.4501 26.2325 45.4216 25.5561 45.4216 25.5561C45.4216 25.5561 44.0461 23.0067 43.533 22.9769C43.0199 22.9472 39.3782 25.5561 38.4161 26.6933C37.5823 27.6522 37.4184 27.5853 37.4184 29.2725C37.4184 30.5435 37.5752 35.3451 37.4897 39.0169L31.6815 40.6298C29.856 41.1763 27.9994 41.6032 26.1228 41.9083L25.4102 37.5749H25.3104L23.4789 27.786C23.4789 27.786 20.7636 26.7156 19.7659 26.4258C19.2974 26.212 18.7801 26.1425 18.275 26.2255C17.7699 26.3085 17.2981 26.5404 16.9153 26.894C16.5248 27.2507 16.2125 27.6909 15.9997 28.1847C15.787 28.6785 15.6788 29.2143 15.6824 29.7556C15.833 30.1011 15.9477 30.4624 16.0245 30.8334C16.0601 31.1902 15.1693 31.153 14.5992 31.153C14.029 31.153 13.9435 30.0827 14.3925 28.8265C14.7428 27.8607 15.1769 26.9302 15.6895 26.0467C16.0751 25.2575 16.5724 24.5333 17.1647 23.8986C17.1647 23.8986 17.2645 23.6459 18.0555 23.7202C18.8466 23.7946 23.2437 24.0398 23.2437 24.0398L23.2793 22.3526C28.0586 21.6643 32.8789 21.3315 37.7035 21.3566C37.7035 21.81 37.7035 22.2634 37.7035 22.7168C39.5309 21.847 41.4987 21.3428 43.5045 21.2302C43.6118 21.2274 43.7182 21.2524 43.8139 21.303C43.9097 21.3536 43.9919 21.4282 44.0533 21.5201C44.2956 21.8397 45.7708 23.75 45.9418 24.025C46.4209 24.739 46.8564 25.4838 47.246 26.2548C47.1124 26.743 46.903 27.205 46.6259 27.6224V27.6299Z" fill="#FDC305"/>
<path d="M45.2365 23.0809C45.5715 23.5268 45.8637 23.9208 45.9492 24.0397C46.4283 24.7538 46.8638 25.4985 47.2534 26.2695C47.1178 26.7417 46.9109 27.1883 46.6405 27.5926C46.3269 27.9122 45.6784 28.1277 45.5715 27.1615C45.4646 26.1952 45.4218 25.556 45.4218 25.556C45.4218 25.556 44.0464 23.0065 43.5333 22.9768C43.0202 22.9471 39.3785 25.556 38.4164 26.6932C37.5826 27.652 37.4187 27.5851 37.4187 29.2724C37.4187 30.3873 37.5399 34.2152 37.5113 37.6194C38.8013 37.7681 40.6969 38.1397 41.267 39.0168C41.267 39.0168 41.0604 33.68 46.8329 36.4747C46.8329 36.4747 47.0324 29.1981 54.9999 31.0637C52.2914 27.7471 48.9712 25.0323 45.2365 23.0809V23.0809Z" fill="#F06351"/>
<path d="M37.7324 21.3565C37.7614 17.2378 37.4274 13.1251 36.7347 9.07014C36.7347 9.07014 36.6278 8.10388 36.1146 8.89175C35.6912 9.83365 35.4031 10.8354 35.2595 11.8649C32.213 11.661 29.155 11.7456 26.1232 12.1176C25.5388 10.0736 24.5411 9.14447 24.0636 9.38975C23.5861 9.63503 23.5291 11.8277 23.5291 11.8277L23.2939 22.3525C28.078 21.6636 32.903 21.3307 37.7324 21.3565V21.3565Z" fill="#F06351"/>
<path d="M37.3186 41.9972C37.4112 41.2019 37.4611 40.1464 37.4896 38.9795L31.6817 40.5924C29.857 41.1514 28.0006 41.5908 26.1233 41.908L26.9143 45.6244C26.9143 45.7062 26.9143 45.7879 26.9642 45.8697C28.0422 46.5991 29.1769 47.2331 30.3563 47.765C32.0799 46.9057 33.7215 45.8778 35.2591 44.6953V44.7399C36.0772 43.9421 36.772 43.0169 37.3186 41.9972V41.9972Z" fill="#E55645"/>
<path d="M27.8049 19.03C27.7693 18.9557 28.5176 19.5354 28.8097 19.7138C29.1019 19.8922 29.2444 20.026 29.2444 20.1523C29.2444 20.2787 29.0592 20.405 28.8026 20.405C28.5461 20.405 28.147 20.3159 28.09 20.2118C28.033 20.1077 28.5176 20.2118 28.7599 20.2118H28.9665C28.5278 19.877 28.1367 19.4791 27.8049 19.03Z" fill="black"/>
<path d="M33.1498 19.1119C33.1498 19.1119 32.4372 20.0633 32.373 20.1079C32.3089 20.1525 32.2519 20.3606 32.5084 20.3234C32.8029 20.2776 33.0936 20.208 33.3778 20.1153C33.4562 20.0707 33.4277 19.9667 33.2923 19.9815C33.1569 19.9964 32.8077 20.0187 32.5797 20.0633L33.1854 19.1193C33.1854 19.1193 33.2068 19.0301 33.1498 19.1119Z" fill="black"/>
<path d="M30.9121 23.6531C31.2424 23.5013 31.5154 23.24 31.6888 22.9098C31.8883 22.4193 31.6888 22.2334 31.3753 22.1665C30.9439 22.0845 30.4987 22.1747 30.1282 22.4193C29.8502 22.6943 29.8859 22.9619 30.1282 23.1625C30.3689 23.3594 30.6322 23.5242 30.9121 23.6531V23.6531Z" fill="black"/>
<path d="M30.6556 24.5899C30.5738 24.7584 30.4627 24.9097 30.3278 25.0358C30.1249 25.2061 29.8754 25.305 29.6152 25.3183C29.2229 25.3585 28.8306 25.2415 28.5178 24.9912C28.3741 24.9036 28.2463 24.7904 28.1401 24.6568C28.0688 24.5758 27.9812 24.5123 27.8835 24.4709C27.8835 24.4709 28.418 27.5258 29.715 28.0164C31.012 28.5069 31.2542 27.4515 31.2899 27.169C31.3333 26.3231 31.1295 25.4834 30.7055 24.7608C30.7055 24.5378 30.6913 24.6865 30.6556 24.5899Z" fill="#F06351"/>
<path d="M29.4441 25.4372C29.1106 25.3872 28.7902 25.2672 28.5024 25.0845C28.2146 24.9019 27.9652 24.6602 27.7694 24.3743C27.7519 24.3538 27.7422 24.3274 27.7422 24.3C27.7422 24.2725 27.7519 24.2461 27.7694 24.2256C27.7787 24.2157 27.7898 24.2079 27.802 24.2025C27.8143 24.1972 27.8274 24.1944 27.8407 24.1944C27.8539 24.1944 27.8671 24.1972 27.8793 24.2025C27.8916 24.2079 27.9026 24.2157 27.9119 24.2256C28.0883 24.4837 28.312 24.7026 28.5701 24.8698C28.8282 25.0369 29.1156 25.1489 29.4156 25.1993C29.6529 25.1807 29.8825 25.1037 30.0857 24.9744C30.2889 24.8452 30.4597 24.6676 30.5843 24.4561L30.684 24.3148L30.7553 24.4783C30.7553 24.4783 31.0261 25.0432 31.4679 25.073C31.9097 25.1027 32.2233 24.7608 32.6295 24.1141C32.6446 24.0905 32.6681 24.0741 32.6948 24.0685C32.7216 24.0629 32.7493 24.0686 32.772 24.0844C32.7947 24.1002 32.8104 24.1247 32.8158 24.1526C32.8211 24.1805 32.8156 24.2094 32.8005 24.2331C32.3254 24.9615 31.8765 25.3108 31.4537 25.2811C31.2902 25.2585 31.1337 25.198 30.9956 25.1042C30.8575 25.0103 30.7413 24.8853 30.6555 24.7385C30.5161 24.9416 30.335 25.1097 30.1254 25.2305C29.9159 25.3514 29.6831 25.422 29.4441 25.4372Z" fill="black"/>
<path d="M30.8408 35.4418C32.3167 35.4418 33.5131 34.1939 33.5131 32.6545C33.5131 31.1151 32.3167 29.8672 30.8408 29.8672C29.3649 29.8672 28.1685 31.1151 28.1685 32.6545C28.1685 34.1939 29.3649 35.4418 30.8408 35.4418Z" fill="#FDC305"/>
<path d="M34.3824 30.3872L32.1519 31.3609L32.9714 27.1763L27.6267 34.4307L29.8572 33.457L29.0377 37.6491L34.3824 30.3872ZM29.1161 33.234L32.0806 29.2129L31.5034 32.186L32.9286 31.5765L29.9427 35.605L30.52 32.6319L29.1161 33.234Z" fill="#111111"/>
<path d="M28.1187 32.1415C28.5595 32.1415 28.9168 31.7688 28.9168 31.309C28.9168 30.8493 28.5595 30.4766 28.1187 30.4766C27.6779 30.4766 27.3206 30.8493 27.3206 31.309C27.3206 31.7688 27.6779 32.1415 28.1187 32.1415Z" fill="#111111"/>
<path d="M32.7651 35.1595C33.076 35.1595 33.3281 34.8966 33.3281 34.5723C33.3281 34.248 33.076 33.9851 32.7651 33.9851C32.4542 33.9851 32.2021 34.248 32.2021 34.5723C32.2021 34.8966 32.4542 35.1595 32.7651 35.1595Z" fill="#111111"/>
<path d="M33.4494 33.5462C33.5871 33.5462 33.6988 33.4297 33.6988 33.286C33.6988 33.1424 33.5871 33.0259 33.4494 33.0259C33.3116 33.0259 33.2 33.1424 33.2 33.286C33.2 33.4297 33.3116 33.5462 33.4494 33.5462Z" fill="#111111"/>
<path d="M37.6968 22.702C36.4103 23.9116 35.1987 25.205 34.0693 26.5745C32.9444 27.9342 31.6748 29.1561 30.2851 30.2166C30.1284 29.8227 29.1235 29.0868 29.1235 29.0868C29.1235 29.0868 26.8858 27.4888 25.4177 26.2326C24.6241 25.5432 23.8764 24.7982 23.18 24.0028L21.7546 23.921C23.8121 27.0555 26.8263 29.3714 30.3065 30.4916C30.9194 30.3875 32.644 29.1017 33.9339 28.0536C35.46 26.7001 36.8891 25.2319 38.2099 23.6609C38.5649 23.2208 38.8402 22.7171 39.0223 22.1743C38.2099 22.4568 37.6968 22.702 37.6968 22.702Z" fill="#F06351"/>
<path d="M23.4792 27.7859C23.4792 27.7859 20.764 26.7156 19.7662 26.4257C19.2978 26.2119 18.7804 26.1424 18.2753 26.2254C17.7702 26.3084 17.2984 26.5404 16.9156 26.894C16.5251 27.2506 16.2128 27.6908 16.0001 28.1846C15.7873 28.6784 15.6791 29.2142 15.6827 29.7556C15.8334 30.1011 15.9481 30.4624 16.0248 30.8333C16.0604 31.1901 15.1696 31.153 14.5995 31.153C14.0294 31.153 13.9438 30.0826 14.3928 28.8265C14.7431 27.8606 15.1772 26.9301 15.6899 26.0466C11.8059 28.1575 5 33.0335 5 33.0335C6.94676 32.911 8.90012 32.9707 10.8367 33.2118C14.5781 33.6058 14.3999 36.6829 14.3999 36.6829C15.7159 36.3046 17.057 36.0288 18.4122 35.8579C19.923 35.7538 20.0299 37.4337 20.0299 37.4337L20.4076 40.3027C20.9812 39.6555 21.6136 39.0681 22.2962 38.5486C23.1759 37.8141 24.2961 37.4673 25.4176 37.5823V37.5823L23.4792 27.7859Z" fill="#F06351"/>
</svg>
