<svg width="92" height="106" viewBox="0 0 92 106" fill="none" xmlns="http://www.w3.org/2000/svg">
<path fill-rule="evenodd" clip-rule="evenodd" d="M70.6835 83.6322C82.9207 75.5893 91 61.7382 91 46C91 21.1472 70.8528 1 46 1C21.1472 1 1 21.1472 1 46C1 70.8528 21.1472 91 46 91C46.3457 91 46.6905 90.9961 47.0343 90.9883L47 91V104L70.6835 83.6322Z" fill="white"/>
<path d="M70.6835 83.6322L70.4089 83.2143L70.3819 83.2321L70.3575 83.2531L70.6835 83.6322ZM47.0343 90.9883L47.1952 91.4617L47.023 90.4885L47.0343 90.9883ZM47 91L46.8391 90.5266L46.5 90.6419V91H47ZM47 104H46.5V105.089L47.326 104.379L47 104ZM90.5 46C90.5 61.5628 82.5114 75.26 70.4089 83.2143L70.9581 84.05C83.3301 75.9186 91.5 61.9135 91.5 46H90.5ZM46 1.5C70.5767 1.5 90.5 21.4233 90.5 46H91.5C91.5 20.871 71.129 0.5 46 0.5V1.5ZM1.5 46C1.5 21.4233 21.4233 1.5 46 1.5V0.5C20.871 0.5 0.5 20.871 0.5 46H1.5ZM46 90.5C21.4233 90.5 1.5 70.5767 1.5 46H0.5C0.5 71.129 20.871 91.5 46 91.5V90.5ZM47.023 90.4885C46.6829 90.4961 46.3419 90.5 46 90.5V91.5C46.3494 91.5 46.698 91.4961 47.0455 91.4882L47.023 90.4885ZM47.1609 91.4734L47.1952 91.4617L46.8733 90.515L46.8391 90.5266L47.1609 91.4734ZM47.5 104V91H46.5V104H47.5ZM70.3575 83.2531L46.674 103.621L47.326 104.379L71.0095 84.0113L70.3575 83.2531Z" fill="white"/>
<path d="M71.0103 35.5453C69.1675 31.0915 66.1997 27.2026 62.4026 24.2663C58.6056 21.3299 54.112 19.4485 49.3696 18.8097C44.6272 18.1708 39.8016 18.7968 35.3737 20.6252C30.9459 22.4536 27.0704 25.4207 24.1335 29.2306C21.1966 33.0405 19.3009 37.5602 18.6352 42.3394C17.9695 47.1186 18.5572 51.9903 20.3397 56.469C22.1221 60.9477 25.0371 64.877 28.794 67.8653C32.551 70.8537 37.0188 72.7966 41.7521 73.5006C41.1321 71.247 40.5014 68.7562 39.9455 66.1144C41.5627 67.1726 43.2647 68.0923 45.0339 68.8641V68.8641C45.0339 68.8641 45.1622 71.1931 45.3332 73.7918C47.2448 73.825 49.1546 73.6552 51.0309 73.285C50.9825 73.014 50.9825 72.7365 51.0309 72.4655C51.3409 70.4491 52.1961 66.8153 52.3672 64.4755C53.6 63.3123 54.6459 61.9627 55.4672 60.4751V60.4751L55.4031 60.9495C54.8151 65.543 53.5858 70.4491 52.8375 71.8078C52.5952 72.2575 52.2971 72.6742 51.9503 73.0478C55.8198 72.1321 59.4456 70.3786 62.5763 67.9087C65.707 65.4387 68.2677 62.3116 70.0808 58.744C71.894 55.1763 72.9163 51.2536 73.0768 47.2478C73.2373 43.242 72.5321 39.2488 71.0103 35.5453V35.5453ZM69.4388 39.632C68.9685 40.0956 67.9957 40.4083 67.8354 39.0065C67.675 37.6048 67.6323 36.6236 67.6323 36.6236C67.6323 36.6236 65.5691 32.9251 64.7995 32.8819C64.0298 32.8388 58.5673 36.6236 57.1241 38.2733C55.8734 39.6643 55.6276 39.5673 55.6276 42.0149C55.6276 43.8588 55.8627 50.8245 55.7345 56.1512L47.0222 58.491C44.2839 59.2837 41.4991 59.9032 38.6841 60.3457L37.6152 54.0593H37.4655L34.7182 39.8584C34.7182 39.8584 30.6454 38.3057 29.1488 37.8851C28.4461 37.575 27.6701 37.4742 26.9124 37.5946C26.1548 37.715 25.447 38.0515 24.8729 38.5645C24.2871 39.0818 23.8187 39.7204 23.4995 40.4368C23.1804 41.1532 23.0181 41.9305 23.0235 42.7158C23.2495 43.217 23.4215 43.7411 23.5366 44.2793C23.5901 44.7969 22.2538 44.743 21.3987 44.743C20.5435 44.743 20.4152 43.1903 21.0886 41.368C21.6141 39.9668 22.2653 38.6169 23.0342 37.3352C23.6125 36.1903 24.3585 35.1398 25.247 34.219C25.247 34.219 25.3967 33.8524 26.5832 33.9602C27.7698 34.068 34.3654 34.4239 34.3654 34.4239L34.4189 31.9762C41.5879 30.9777 48.8182 30.4949 56.0552 30.5313C56.0552 31.189 56.0552 31.8468 56.0552 32.5045C58.7963 31.2427 61.7479 30.5112 64.7567 30.348C64.9177 30.3439 65.0772 30.3801 65.2208 30.4535C65.3645 30.5269 65.4878 30.6352 65.5798 30.7685C65.9433 31.2322 68.1561 34.0033 68.4126 34.4023C69.1312 35.4382 69.7846 36.5186 70.3689 37.6371C70.1686 38.3454 69.8544 39.0156 69.4388 39.6212V39.632Z" fill="#FDC305"/>
<path d="M67.3549 33.0329C67.8573 33.6799 68.2956 34.2514 68.4239 34.4239C69.1425 35.4598 69.7958 36.5402 70.3801 37.6587C70.1767 38.3437 69.8664 38.9916 69.4608 39.5781C68.9905 40.0417 68.0177 40.3544 67.8573 38.9527C67.697 37.5509 67.6328 36.6236 67.6328 36.6236C67.6328 36.6236 65.5697 32.9251 64.8 32.882C64.0304 32.8388 58.5678 36.6236 57.1247 38.2733C55.874 39.6643 55.6281 39.5673 55.6281 42.015C55.6281 43.6324 55.8099 49.1855 55.7671 54.124C57.702 54.3397 60.5455 54.8788 61.4007 56.1512C61.4007 56.1512 61.0907 48.4091 69.7494 52.4635C69.7494 52.4635 70.0488 41.9071 82 44.6136C77.9373 39.8022 72.9568 35.8639 67.3549 33.0329V33.0329Z" fill="#F06351"/>
<path d="M56.0985 30.5313C56.142 24.5563 55.641 18.5899 54.6019 12.7074C54.6019 12.7074 54.4416 11.3056 53.6719 12.4486C53.0368 13.815 52.6046 15.2683 52.3891 16.7617C47.8194 16.466 43.2325 16.5887 38.6847 17.1283C37.8082 14.1631 36.3116 12.8152 35.5954 13.171C34.8791 13.5269 34.7936 16.7078 34.7936 16.7078L34.4409 31.9762C41.6169 30.9767 48.8544 30.4939 56.0985 30.5313V30.5313Z" fill="#F06351"/>
<path d="M55.4776 60.475C55.6166 59.3212 55.6914 57.7901 55.7342 56.0972L47.0224 58.437C44.2853 59.2479 41.5007 59.8854 38.6847 60.3456L39.8712 65.737C39.8712 65.8556 39.8712 65.9742 39.946 66.0928C41.5631 67.1509 43.2651 68.0706 45.0342 68.8424C47.6196 67.5957 50.082 66.1046 52.3884 64.3891V64.4538C53.6156 63.2964 54.6577 61.9542 55.4776 60.475V60.475Z" fill="#E55645"/>
<path d="M41.2075 27.1562C41.1541 27.0484 42.2765 27.8894 42.7147 28.1482C43.153 28.407 43.3668 28.6011 43.3668 28.7844C43.3668 28.9677 43.0889 29.151 42.704 29.151C42.3192 29.151 41.7206 29.0216 41.6351 28.8707C41.5496 28.7197 42.2765 28.8707 42.6399 28.8707H42.9499C42.2918 28.385 41.7052 27.8078 41.2075 27.1562Z" fill="black"/>
<path d="M49.2248 27.2749C49.2248 27.2749 48.1559 28.6551 48.0597 28.7198C47.9635 28.7845 47.878 29.0864 48.2628 29.0325C48.7046 28.966 49.1406 28.865 49.5669 28.7306C49.6845 28.6659 49.6417 28.5149 49.4386 28.5365C49.2355 28.5581 48.7118 28.5904 48.3697 28.6551L49.2783 27.2857C49.2783 27.2857 49.3104 27.1563 49.2248 27.2749Z" fill="black"/>
<path d="M45.8682 33.863C46.3637 33.6428 46.7733 33.2638 47.0334 32.7848C47.3327 32.0731 47.0334 31.8035 46.563 31.7065C45.916 31.5874 45.2482 31.7183 44.6924 32.0731C44.2755 32.4721 44.329 32.8602 44.6924 33.1514C45.0535 33.437 45.4485 33.6761 45.8682 33.863V33.863Z" fill="black"/>
<path d="M45.4833 35.2218C45.3606 35.4664 45.1938 35.6858 44.9916 35.8688C44.6871 36.1159 44.3129 36.2593 43.9226 36.2786C43.3341 36.3368 42.7456 36.1672 42.2765 35.8041C42.061 35.677 41.8693 35.5128 41.71 35.3189C41.603 35.2014 41.4716 35.1094 41.3251 35.0493C41.3251 35.0493 42.1268 39.481 44.0723 40.1927C46.0177 40.9044 46.3812 39.3732 46.4346 38.9635C46.4997 37.7363 46.1941 36.518 45.5581 35.4698C45.5581 35.1464 45.5367 35.362 45.4833 35.2218Z" fill="#F06351"/>
<path d="M43.6661 36.451C43.1658 36.3784 42.6853 36.2044 42.2536 35.9394C41.8219 35.6744 41.4478 35.3239 41.1541 34.909C41.1278 34.8794 41.1133 34.841 41.1133 34.8012C41.1133 34.7614 41.1278 34.723 41.1541 34.6934C41.168 34.679 41.1846 34.6677 41.203 34.6599C41.2214 34.6521 41.2411 34.6481 41.261 34.6481C41.2809 34.6481 41.3006 34.6521 41.3189 34.6599C41.3373 34.6677 41.3539 34.679 41.3679 34.6934C41.6324 35.0677 41.968 35.3854 42.3552 35.6278C42.7423 35.8703 43.1734 36.0328 43.6233 36.1059C43.9793 36.079 44.3238 35.9671 44.6285 35.7797C44.9333 35.5922 45.1896 35.3345 45.3764 35.0277L45.526 34.8228L45.6329 35.06C45.6329 35.06 46.0391 35.8795 46.7018 35.9226C47.3646 35.9658 47.8349 35.4698 48.4442 34.5317C48.4669 34.4973 48.5021 34.4735 48.5422 34.4654C48.5823 34.4573 48.624 34.4656 48.658 34.4885C48.692 34.5114 48.7156 34.547 48.7236 34.5874C48.7317 34.6279 48.7234 34.6699 48.7007 34.7042C47.9881 35.7609 47.3147 36.2677 46.6805 36.2245C46.4353 36.1918 46.2006 36.1041 45.9934 35.9679C45.7862 35.8317 45.6119 35.6504 45.4833 35.4374C45.2741 35.732 45.0025 35.9759 44.6881 36.1512C44.3738 36.3265 44.0246 36.429 43.6661 36.451Z" fill="black"/>
<path d="M45.7612 50.9648C47.9751 50.9648 49.7697 49.1544 49.7697 46.9212C49.7697 44.688 47.9751 42.8777 45.7612 42.8777C43.5474 42.8777 41.7527 44.688 41.7527 46.9212C41.7527 49.1544 43.5474 50.9648 45.7612 50.9648Z" fill="#FDC305"/>
<path d="M51.0738 43.6323L47.728 45.0448L48.9573 38.9741L40.9403 49.4981L44.2861 48.0856L43.0568 54.167L51.0738 43.6323ZM43.1744 47.7621L47.6211 41.9286L46.7553 46.2417L48.8931 45.3575L44.4143 51.2018L45.2802 46.8887L43.1744 47.7621Z" fill="#111111"/>
<path d="M41.6778 46.1771C42.339 46.1771 42.875 45.6364 42.875 44.9694C42.875 44.3024 42.339 43.7617 41.6778 43.7617C41.0166 43.7617 40.4806 44.3024 40.4806 44.9694C40.4806 45.6364 41.0166 46.1771 41.6778 46.1771Z" fill="#111111"/>
<path d="M48.6476 50.5552C49.114 50.5552 49.4921 50.1739 49.4921 49.7034C49.4921 49.2329 49.114 48.8516 48.6476 48.8516C48.1812 48.8516 47.8032 49.2329 47.8032 49.7034C47.8032 50.1739 48.1812 50.5552 48.6476 50.5552Z" fill="#111111"/>
<path d="M49.6739 48.215C49.8805 48.215 50.048 48.046 50.048 47.8376C50.048 47.6292 49.8805 47.4602 49.6739 47.4602C49.4672 47.4602 49.2997 47.6292 49.2997 47.8376C49.2997 48.046 49.4672 48.215 49.6739 48.215Z" fill="#111111"/>
<path d="M56.045 32.4831C54.1154 34.2378 52.298 36.1141 50.6039 38.1009C48.9164 40.0734 47.0121 41.846 44.9276 43.3845C44.6924 42.813 43.1852 41.7455 43.1852 41.7455C43.1852 41.7455 39.8285 39.4272 37.6264 37.6049C36.436 36.6048 35.3145 35.524 34.2698 34.3701L32.1319 34.2515C35.2181 38.7987 39.7393 42.1584 44.9597 43.7835C45.879 43.6325 48.4659 41.7671 50.4008 40.2467C52.6899 38.283 54.8336 36.1532 56.8147 33.8741C57.3472 33.2357 57.7601 32.505 58.0334 31.7175C56.8147 32.1273 56.045 32.4831 56.045 32.4831Z" fill="#F06351"/>
<path d="M34.7188 39.8584C34.7188 39.8584 30.6459 38.3057 29.1494 37.8851C28.4467 37.575 27.6707 37.4742 26.913 37.5946C26.1553 37.7149 25.4476 38.0515 24.8734 38.5644C24.2876 39.0818 23.8192 39.7204 23.5001 40.4368C23.181 41.1531 23.0186 41.9305 23.0241 42.7158C23.2501 43.217 23.4221 43.7411 23.5372 44.2793C23.5906 44.7969 22.2544 44.743 21.3992 44.743C20.544 44.743 20.4158 43.1903 21.0892 41.368C21.6146 39.9667 22.2659 38.6169 23.0348 37.3352C17.2088 40.3975 7 47.471 7 47.471C9.92014 47.2934 12.8502 47.38 15.755 47.7298C21.3672 48.3013 21.0999 52.7654 21.0999 52.7654C23.0738 52.2164 25.0855 51.8164 27.1183 51.5685C29.3845 51.4175 29.5449 53.8544 29.5449 53.8544L30.1115 58.0166C30.9717 57.0777 31.9205 56.2255 32.9443 55.4718C34.2639 54.4063 35.9442 53.9032 37.6264 54.0701V54.0701L34.7188 39.8584Z" fill="#F06351"/>
</svg>
