<svg width="62" height="73" fill="none" xmlns="http://www.w3.org/2000/svg"><path fill-rule="evenodd" clip-rule="evenodd" d="M47.456 57.96C55.614 52.416 61 42.868 61 32.02 61 14.887 47.569 1 31 1 14.431 1 1 14.888 1 32.02c0 17.13 13.431 31.018 30 31.018.23 0 .46-.003.69-.008l-.023.008V72l15.789-14.04z" fill="#fff"/><path d="M47.456 57.96l-.562-.827a.987.987 0 00-.103.08l.665.747zm-15.767 5.07l.332.944a1 1 0 00-.355-1.943l.023 1zm-.022.009l-.332-.944a1 1 0 00-.668.944h1zm0 8.961h-1a1 1 0 001.664.747L31.667 72zM60 32.02c0 10.512-5.218 19.752-13.106 25.113l1.124 1.654C56.446 53.06 62 43.204 62 32.02h-2zM31 2c15.985 0 29 13.408 29 30.02h2C62 14.366 48.152 0 31 0v2zM2 32.02C2 15.407 15.015 2 31 2V0C13.848 0 0 14.367 0 32.02h2zm29 30.019c-15.985 0-29-13.409-29-30.02H0c0 17.653 13.848 32.02 31 32.02v-2zm.666-.008a28.93 28.93 0 01-.666.008v2c.238 0 .476-.003.713-.008l-.047-2zm.332 1.951l.023-.008-.663-1.887-.023.008.663 1.887zM32.667 72v-8.961h-2V72h2zM46.79 57.213l-15.789 14.04 1.33 1.494 15.788-14.04-1.329-1.494z" fill="#000"/><path d="M47.674 24.813a18.964 18.964 0 00-5.739-7.775 17.857 17.857 0 00-8.689-3.761 17.563 17.563 0 00-9.33 1.251c-2.952 1.26-5.536 3.306-7.494 5.932a19.468 19.468 0 00-3.665 9.036 19.791 19.791 0 001.136 9.74 18.988 18.988 0 005.636 7.856 17.88 17.88 0 008.64 3.884 88.381 88.381 0 01-1.205-5.091 22.737 22.737 0 003.392 1.895s.085 1.606.2 3.397a17.425 17.425 0 003.798-.35 1.659 1.659 0 010-.564c.207-1.39.777-3.895.89-5.508a11.257 11.257 0 002.068-2.758l-.043.328c-.392 3.166-1.212 6.548-1.71 7.484-.162.31-.36.598-.592.855a17.964 17.964 0 007.084-3.542 18.904 18.904 0 005.003-6.318 19.705 19.705 0 001.997-7.924 19.786 19.786 0 00-1.377-8.067zm-1.048 2.817c-.314.32-.962.535-1.069-.431-.107-.966-.135-1.643-.135-1.643s-1.376-2.55-1.889-2.58c-.513-.029-4.155 2.58-5.117 3.717-.834.96-.998.892-.998 2.58 0 1.27.157 6.072.072 9.744l-5.81 1.613a44.003 44.003 0 01-5.558 1.278l-.713-4.333h-.1l-1.831-9.789s-2.715-1.07-3.713-1.36a2.579 2.579 0 00-1.491-.2 2.634 2.634 0 00-1.36.668c-.39.357-.703.797-.915 1.29a3.908 3.908 0 00-.318 1.572c.151.345.266.706.342 1.077.036.357-.855.32-1.425.32-.57 0-.655-1.07-.207-2.326a17.28 17.28 0 011.298-2.78 8.827 8.827 0 011.475-2.148s.1-.253.89-.179c.792.075 5.189.32 5.189.32l.035-1.687a97.41 97.41 0 0114.424-.996v1.36a15.515 15.515 0 015.801-1.487.627.627 0 01.31.073c.096.05.178.125.24.217.242.32 1.717 2.23 1.888 2.505.479.714.914 1.459 1.304 2.23a4.73 4.73 0 01-.62 1.367v.008z" fill="#FDC305"/><path d="M45.236 23.08c.336.447.628.84.713.96.48.714.915 1.459 1.304 2.23a4.726 4.726 0 01-.612 1.323c-.314.32-.963.535-1.07-.431-.106-.967-.15-1.606-.15-1.606s-1.375-2.55-1.888-2.58c-.513-.029-4.154 2.58-5.117 3.717-.833.959-.997.892-.997 2.58 0 1.114.12 4.942.092 8.346 1.29.15 3.186.52 3.756 1.398 0 0-.207-5.337 5.566-2.542 0 0 .2-7.277 8.167-5.411a31.388 31.388 0 00-9.764-7.983zm-7.504-1.723a70.047 70.047 0 00-.997-12.287s-.107-.966-.62-.178a10.94 10.94 0 00-.855 2.973 48.443 48.443 0 00-9.137.253c-.584-2.044-1.582-2.974-2.06-2.728-.477.245-.534 2.438-.534 2.438l-.235 10.524a97.633 97.633 0 0114.438-.995z" fill="#F06351"/><path d="M37.319 41.997c.092-.795.142-1.85.17-3.017l-5.807 1.612a44.003 44.003 0 01-5.559 1.316l.791 3.716c0 .082 0 .164.05.246a22.725 22.725 0 003.392 1.895 30 30 0 004.903-3.07v.045a11.258 11.258 0 002.06-2.743z" fill="#E55645"/><path d="M27.805 19.03c-.036-.074.713.505 1.005.684.292.178.434.312.434.438 0 .127-.185.253-.441.253-.257 0-.656-.09-.713-.193-.057-.104.428 0 .67 0h.206a5.883 5.883 0 01-1.161-1.182zm5.345.082s-.713.951-.777.996c-.064.044-.121.253.135.215.295-.045.586-.115.87-.208.078-.044.05-.148-.086-.133-.135.014-.484.037-.712.081l.605-.944s.022-.089-.035-.007zm-2.238 4.541c.33-.152.603-.413.777-.743.2-.49 0-.677-.314-.744a1.687 1.687 0 00-1.247.253c-.278.275-.242.543 0 .744.24.196.504.361.784.49z" fill="#000"/><path d="M30.656 24.59c-.082.168-.193.32-.328.446-.203.17-.453.269-.713.282a1.508 1.508 0 01-1.097-.327 1.442 1.442 0 01-.378-.334.713.713 0 00-.256-.186s.534 3.055 1.831 3.545c1.297.49 1.54-.564 1.575-.847a4.326 4.326 0 00-.584-2.408c0-.223-.015-.075-.05-.171z" fill="#F06351"/><path d="M29.444 25.437a2.429 2.429 0 01-.942-.353 2.538 2.538 0 01-.733-.71.114.114 0 010-.148.1.1 0 01.072-.032.097.097 0 01.07.032c.177.258.401.477.66.644.257.167.545.279.845.33a1.46 1.46 0 00.67-.226c.203-.129.374-.306.498-.518l.1-.141.071.163s.271.565.713.595c.442.03.755-.312 1.162-.959a.103.103 0 01.065-.046.1.1 0 01.077.016.111.111 0 01.029.149c-.476.729-.925 1.078-1.347 1.048a1.078 1.078 0 01-.458-.177 1.132 1.132 0 01-.34-.366c-.14.204-.321.372-.53.492a1.56 1.56 0 01-.682.207z" fill="#000"/><path d="M30.84 35.442c1.477 0 2.673-1.248 2.673-2.788 0-1.539-1.196-2.787-2.672-2.787-1.476 0-2.672 1.248-2.672 2.787 0 1.54 1.196 2.788 2.672 2.788z" fill="#FDC305"/><path d="M34.382 30.387l-2.23.974.82-4.185-5.345 7.255 2.23-.974-.82 4.192 5.345-7.262zm-5.266 2.847l2.965-4.021-.578 2.973 1.426-.61-2.986 4.029.577-2.973-1.404.602zm-.997-1.092c.44 0 .798-.373.798-.833 0-.46-.358-.832-.798-.832-.441 0-.798.372-.798.832 0 .46.357.832.798.832zm4.646 3.018a.576.576 0 00.563-.588.576.576 0 00-.563-.587.576.576 0 00-.563.587c0 .325.252.587.563.587zm.685-1.614a.255.255 0 00.249-.26.255.255 0 00-.25-.26.255.255 0 00-.249.26c0 .144.112.26.25.26z" fill="#111"/><path d="M37.697 22.702a41.945 41.945 0 00-3.628 3.872 23.108 23.108 0 01-3.784 3.643c-.157-.394-1.162-1.13-1.162-1.13s-2.237-1.598-3.705-2.854a23.176 23.176 0 01-2.238-2.23l-1.425-.082c2.057 3.134 5.071 5.45 8.552 6.57.612-.104 2.337-1.39 3.627-2.437a41.976 41.976 0 004.276-4.393c.355-.44.63-.944.812-1.487-.812.283-1.325.528-1.325.528zM23.48 27.786s-2.716-1.07-3.714-1.36a2.578 2.578 0 00-1.49-.2 2.634 2.634 0 00-1.36.668c-.39.357-.703.797-.916 1.29a3.907 3.907 0 00-.317 1.572c.15.345.265.706.342 1.077.035.357-.855.32-1.425.32-.57 0-.656-1.07-.207-2.326.35-.966.784-1.897 1.297-2.78C11.806 28.157 5 33.033 5 33.033c1.947-.122 3.9-.062 5.837.179 3.741.394 3.563 3.47 3.563 3.47a26.541 26.541 0 014.012-.824c1.511-.104 1.618 1.576 1.618 1.576l.378 2.869a13.233 13.233 0 011.888-1.754c.88-.735 2-1.082 3.122-.967l-1.939-9.796z" fill="#F06351"/></svg>